<mxfile host="Electron" modified="2023-11-13T04:32:58.181Z" agent="Mozilla/5.0 (Windows NT 10.0; Win64; x64) AppleWebKit/537.36 (KHTML, like Gecko) draw.io/21.4.0 Chrome/112.0.5615.204 Electron/24.5.1 Safari/537.36" etag="xUKmCmWzbD5-YYG4YlBX" version="21.4.0" type="device">
  <diagram name="Page-1" id="ogImA9OESPRgRZVI8EhM">
    <mxGraphModel dx="359" dy="209" grid="1" gridSize="10" guides="1" tooltips="1" connect="1" arrows="1" fold="1" page="1" pageScale="1" pageWidth="1100" pageHeight="1700" math="0" shadow="0">
      <root>
        <mxCell id="0" />
        <mxCell id="1" parent="0" />
        <mxCell id="jpzbYG29YEpEbXQin0qu-346" value="" style="rounded=0;whiteSpace=wrap;html=1;strokeColor=none;fillColor=#d5e8d4;rotation=-25;" vertex="1" parent="1">
          <mxGeometry x="392.73" y="559.3499999999999" width="21.09" height="14.95" as="geometry" />
        </mxCell>
        <mxCell id="jpzbYG29YEpEbXQin0qu-345" value="" style="rounded=0;whiteSpace=wrap;html=1;strokeColor=none;fillColor=#d5e8d4;rotation=30;" vertex="1" parent="1">
          <mxGeometry x="391.25" y="587.8" width="21.09" height="14.95" as="geometry" />
        </mxCell>
        <mxCell id="jpzbYG29YEpEbXQin0qu-342" value="" style="triangle;whiteSpace=wrap;html=1;fillColor=#d5e8d4;rotation=90;strokeColor=none;" vertex="1" parent="1">
          <mxGeometry x="506.0200000000001" y="547.87" width="9.85" height="35.13" as="geometry" />
        </mxCell>
        <mxCell id="jpzbYG29YEpEbXQin0qu-343" value="" style="rounded=0;whiteSpace=wrap;html=1;strokeColor=none;fillColor=#d5e8d4;rotation=0;" vertex="1" parent="1">
          <mxGeometry x="490" y="539.32" width="40.95" height="22" as="geometry" />
        </mxCell>
        <mxCell id="jpzbYG29YEpEbXQin0qu-344" value="" style="triangle;whiteSpace=wrap;html=1;fillColor=#d5e8d4;rotation=-90;strokeColor=none;" vertex="1" parent="1">
          <mxGeometry x="506.5200000000001" y="518.13" width="8.75" height="35.13" as="geometry" />
        </mxCell>
        <mxCell id="jpzbYG29YEpEbXQin0qu-339" value="" style="triangle;whiteSpace=wrap;html=1;fillColor=#d5e8d4;rotation=90;strokeColor=none;" vertex="1" parent="1">
          <mxGeometry x="405.9200000000001" y="577.3100000000001" width="9.85" height="35.13" as="geometry" />
        </mxCell>
        <mxCell id="jpzbYG29YEpEbXQin0qu-340" value="" style="rounded=0;whiteSpace=wrap;html=1;strokeColor=none;fillColor=#d5e8d4;rotation=0;" vertex="1" parent="1">
          <mxGeometry x="390.85" y="568.76" width="40" height="22" as="geometry" />
        </mxCell>
        <mxCell id="jpzbYG29YEpEbXQin0qu-341" value="" style="triangle;whiteSpace=wrap;html=1;fillColor=#d5e8d4;rotation=-90;strokeColor=none;" vertex="1" parent="1">
          <mxGeometry x="406.4200000000001" y="547.57" width="8.75" height="35.13" as="geometry" />
        </mxCell>
        <mxCell id="jpzbYG29YEpEbXQin0qu-1" value="" style="rounded=0;whiteSpace=wrap;html=1;strokeColor=none;fillColor=#d5e8d4;rotation=-120;" vertex="1" parent="1">
          <mxGeometry x="456.94" y="582.37" width="5.92" height="22" as="geometry" />
        </mxCell>
        <mxCell id="jpzbYG29YEpEbXQin0qu-3" value="" style="rounded=0;whiteSpace=wrap;html=1;strokeColor=none;fillColor=#d5e8d4;rotation=-60;" vertex="1" parent="1">
          <mxGeometry x="455.29999999999995" y="555" width="10" height="22" as="geometry" />
        </mxCell>
        <mxCell id="jpzbYG29YEpEbXQin0qu-4" value="" style="rounded=0;whiteSpace=wrap;html=1;strokeColor=none;fillColor=#d5e8d4;rotation=-60;" vertex="1" parent="1">
          <mxGeometry x="534.29" y="498.26" width="10" height="13.79" as="geometry" />
        </mxCell>
        <mxCell id="jpzbYG29YEpEbXQin0qu-5" value="" style="rounded=0;whiteSpace=wrap;html=1;strokeColor=none;fillColor=#d5e8d4;rotation=-60;" vertex="1" parent="1">
          <mxGeometry x="453.87" y="619.05" width="6.9" height="13.79" as="geometry" />
        </mxCell>
        <mxCell id="jpzbYG29YEpEbXQin0qu-7" value="" style="rounded=0;whiteSpace=wrap;html=1;strokeColor=none;fillColor=#d5e8d4;rotation=-60;" vertex="1" parent="1">
          <mxGeometry x="395.27" y="524.49" width="10" height="22" as="geometry" />
        </mxCell>
        <mxCell id="jpzbYG29YEpEbXQin0qu-9" value="" style="rounded=0;whiteSpace=wrap;html=1;strokeColor=none;fillColor=#d5e8d4;rotation=-60;" vertex="1" parent="1">
          <mxGeometry x="376.52" y="614.57" width="10" height="22" as="geometry" />
        </mxCell>
        <mxCell id="jpzbYG29YEpEbXQin0qu-10" value="" style="rounded=0;whiteSpace=wrap;html=1;strokeColor=none;fillColor=#d5e8d4;rotation=-60;" vertex="1" parent="1">
          <mxGeometry x="415.9" y="493.55" width="10" height="22" as="geometry" />
        </mxCell>
        <mxCell id="jpzbYG29YEpEbXQin0qu-16" value="" style="triangle;whiteSpace=wrap;html=1;fillColor=#d5e8d4;rotation=90;strokeColor=none;" vertex="1" parent="1">
          <mxGeometry x="545.9200000000001" y="486.2000000000001" width="9.85" height="35.13" as="geometry" />
        </mxCell>
        <mxCell id="jpzbYG29YEpEbXQin0qu-17" value="" style="rounded=0;whiteSpace=wrap;html=1;strokeColor=none;fillColor=#d5e8d4;rotation=0;" vertex="1" parent="1">
          <mxGeometry x="530.85" y="490" width="40" height="9.65" as="geometry" />
        </mxCell>
        <mxCell id="jpzbYG29YEpEbXQin0qu-18" value="" style="triangle;whiteSpace=wrap;html=1;fillColor=#d5e8d4;rotation=90;strokeColor=none;" vertex="1" parent="1">
          <mxGeometry x="525.97" y="517.58" width="9.85" height="35.13" as="geometry" />
        </mxCell>
        <mxCell id="jpzbYG29YEpEbXQin0qu-19" value="" style="rounded=0;whiteSpace=wrap;html=1;strokeColor=none;fillColor=#d5e8d4;rotation=0;" vertex="1" parent="1">
          <mxGeometry x="510.9" y="509.03" width="40" height="22" as="geometry" />
        </mxCell>
        <mxCell id="jpzbYG29YEpEbXQin0qu-20" value="" style="triangle;whiteSpace=wrap;html=1;fillColor=#d5e8d4;rotation=-90;strokeColor=none;" vertex="1" parent="1">
          <mxGeometry x="526.47" y="487.84000000000003" width="8.75" height="35.13" as="geometry" />
        </mxCell>
        <mxCell id="jpzbYG29YEpEbXQin0qu-26" value="" style="rounded=0;whiteSpace=wrap;html=1;strokeColor=none;fillColor=#d5e8d4;rotation=0;" vertex="1" parent="1">
          <mxGeometry x="430.98" y="629.01" width="40" height="10.99" as="geometry" />
        </mxCell>
        <mxCell id="jpzbYG29YEpEbXQin0qu-27" value="" style="triangle;whiteSpace=wrap;html=1;fillColor=#d5e8d4;rotation=-90;strokeColor=none;" vertex="1" parent="1">
          <mxGeometry x="446.55000000000007" y="607.82" width="8.75" height="35.13" as="geometry" />
        </mxCell>
        <mxCell id="jpzbYG29YEpEbXQin0qu-31" value="" style="triangle;whiteSpace=wrap;html=1;fillColor=#d5e8d4;rotation=90;strokeColor=none;" vertex="1" parent="1">
          <mxGeometry x="386.02000000000004" y="607.0400000000001" width="9.85" height="35.13" as="geometry" />
        </mxCell>
        <mxCell id="jpzbYG29YEpEbXQin0qu-32" value="" style="rounded=0;whiteSpace=wrap;html=1;strokeColor=none;fillColor=#d5e8d4;rotation=0;" vertex="1" parent="1">
          <mxGeometry x="370.95" y="598.49" width="40" height="22" as="geometry" />
        </mxCell>
        <mxCell id="jpzbYG29YEpEbXQin0qu-33" value="" style="triangle;whiteSpace=wrap;html=1;fillColor=#d5e8d4;rotation=-90;strokeColor=none;" vertex="1" parent="1">
          <mxGeometry x="386.52000000000004" y="577.3000000000001" width="8.75" height="35.13" as="geometry" />
        </mxCell>
        <mxCell id="jpzbYG29YEpEbXQin0qu-34" value="" style="triangle;whiteSpace=wrap;html=1;fillColor=#d5e8d4;rotation=90;strokeColor=none;" vertex="1" parent="1">
          <mxGeometry x="465.9200000000001" y="547.87" width="9.85" height="35.13" as="geometry" />
        </mxCell>
        <mxCell id="jpzbYG29YEpEbXQin0qu-35" value="" style="rounded=0;whiteSpace=wrap;html=1;strokeColor=none;fillColor=#d5e8d4;rotation=0;" vertex="1" parent="1">
          <mxGeometry x="450.85" y="539.3199999999999" width="40" height="22" as="geometry" />
        </mxCell>
        <mxCell id="jpzbYG29YEpEbXQin0qu-36" value="" style="triangle;whiteSpace=wrap;html=1;fillColor=#d5e8d4;rotation=-90;strokeColor=none;" vertex="1" parent="1">
          <mxGeometry x="466.4200000000001" y="518.13" width="8.75" height="35.13" as="geometry" />
        </mxCell>
        <mxCell id="jpzbYG29YEpEbXQin0qu-37" value="" style="triangle;whiteSpace=wrap;html=1;fillColor=#d5e8d4;rotation=90;strokeColor=none;" vertex="1" parent="1">
          <mxGeometry x="446.05000000000007" y="576.86" width="9.85" height="35.13" as="geometry" />
        </mxCell>
        <mxCell id="jpzbYG29YEpEbXQin0qu-38" value="" style="rounded=0;whiteSpace=wrap;html=1;strokeColor=none;fillColor=#d5e8d4;rotation=0;" vertex="1" parent="1">
          <mxGeometry x="430" y="568.31" width="40.98" height="22" as="geometry" />
        </mxCell>
        <mxCell id="jpzbYG29YEpEbXQin0qu-39" value="" style="triangle;whiteSpace=wrap;html=1;fillColor=#d5e8d4;rotation=-90;strokeColor=none;" vertex="1" parent="1">
          <mxGeometry x="446.55000000000007" y="547.12" width="8.75" height="35.13" as="geometry" />
        </mxCell>
        <mxCell id="jpzbYG29YEpEbXQin0qu-40" value="" style="triangle;whiteSpace=wrap;html=1;fillColor=#d5e8d4;rotation=90;strokeColor=none;" vertex="1" parent="1">
          <mxGeometry x="406.02000000000004" y="517.58" width="9.85" height="35.13" as="geometry" />
        </mxCell>
        <mxCell id="jpzbYG29YEpEbXQin0qu-41" value="" style="rounded=0;whiteSpace=wrap;html=1;strokeColor=none;fillColor=#d5e8d4;rotation=0;" vertex="1" parent="1">
          <mxGeometry x="390.95" y="509.03" width="40" height="22" as="geometry" />
        </mxCell>
        <mxCell id="jpzbYG29YEpEbXQin0qu-42" value="" style="triangle;whiteSpace=wrap;html=1;fillColor=#d5e8d4;rotation=-90;strokeColor=none;" vertex="1" parent="1">
          <mxGeometry x="406.52000000000004" y="487.84000000000003" width="8.75" height="35.13" as="geometry" />
        </mxCell>
        <mxCell id="jpzbYG29YEpEbXQin0qu-46" value="" style="triangle;whiteSpace=wrap;html=1;fillColor=#d5e8d4;rotation=90;strokeColor=none;" vertex="1" parent="1">
          <mxGeometry x="426.02000000000004" y="487.23" width="9.85" height="35.13" as="geometry" />
        </mxCell>
        <mxCell id="jpzbYG29YEpEbXQin0qu-47" value="" style="rounded=0;whiteSpace=wrap;html=1;strokeColor=none;fillColor=#d5e8d4;rotation=0;" vertex="1" parent="1">
          <mxGeometry x="410.95" y="490" width="40" height="10.68" as="geometry" />
        </mxCell>
        <mxCell id="jpzbYG29YEpEbXQin0qu-48" value="" style="triangle;whiteSpace=wrap;html=1;fillColor=#d5e8d4;rotation=90;strokeColor=none;" vertex="1" parent="1">
          <mxGeometry x="466.02000000000004" y="487.20000000000005" width="9.85" height="35.13" as="geometry" />
        </mxCell>
        <mxCell id="jpzbYG29YEpEbXQin0qu-49" value="" style="rounded=0;whiteSpace=wrap;html=1;strokeColor=none;fillColor=#d5e8d4;rotation=0;" vertex="1" parent="1">
          <mxGeometry x="450.95" y="490" width="40" height="10.65" as="geometry" />
        </mxCell>
        <mxCell id="jpzbYG29YEpEbXQin0qu-50" value="" style="rounded=0;whiteSpace=wrap;html=1;strokeColor=none;fillColor=#d5e8d4;rotation=0;" vertex="1" parent="1">
          <mxGeometry x="310.85" y="628.77" width="40" height="11.23" as="geometry" />
        </mxCell>
        <mxCell id="jpzbYG29YEpEbXQin0qu-51" value="" style="triangle;whiteSpace=wrap;html=1;fillColor=#d5e8d4;rotation=-90;strokeColor=none;" vertex="1" parent="1">
          <mxGeometry x="326.42" y="607.58" width="8.75" height="35.13" as="geometry" />
        </mxCell>
        <mxCell id="jpzbYG29YEpEbXQin0qu-52" value="" style="rounded=0;whiteSpace=wrap;html=1;strokeColor=none;fillColor=#d5e8d4;rotation=0;" vertex="1" parent="1">
          <mxGeometry x="350.85" y="628.74" width="40" height="11.26" as="geometry" />
        </mxCell>
        <mxCell id="jpzbYG29YEpEbXQin0qu-53" value="" style="triangle;whiteSpace=wrap;html=1;fillColor=#d5e8d4;rotation=-90;strokeColor=none;" vertex="1" parent="1">
          <mxGeometry x="366.42" y="607.5500000000001" width="8.75" height="35.13" as="geometry" />
        </mxCell>
        <mxCell id="jpzbYG29YEpEbXQin0qu-57" value="" style="triangle;whiteSpace=wrap;html=1;fillColor=#d5e8d4;rotation=90;strokeColor=none;" vertex="1" parent="1">
          <mxGeometry x="386.02000000000004" y="547.2900000000001" width="9.85" height="35.13" as="geometry" />
        </mxCell>
        <mxCell id="jpzbYG29YEpEbXQin0qu-58" value="" style="rounded=0;whiteSpace=wrap;html=1;strokeColor=none;fillColor=#d5e8d4;rotation=0;" vertex="1" parent="1">
          <mxGeometry x="370.95" y="538.74" width="40" height="22" as="geometry" />
        </mxCell>
        <mxCell id="jpzbYG29YEpEbXQin0qu-59" value="" style="triangle;whiteSpace=wrap;html=1;fillColor=#d5e8d4;rotation=-90;strokeColor=none;" vertex="1" parent="1">
          <mxGeometry x="386.52000000000004" y="517.5500000000001" width="8.75" height="35.13" as="geometry" />
        </mxCell>
        <mxCell id="jpzbYG29YEpEbXQin0qu-60" value="" style="shape=or;whiteSpace=wrap;html=1;dashed=1;fillColor=#FFFFFF;rotation=33;strokeColor=none;" vertex="1" parent="1">
          <mxGeometry x="502.18" y="446.44" width="28.29" height="242.77" as="geometry" />
        </mxCell>
        <mxCell id="jpzbYG29YEpEbXQin0qu-61" value="" style="endArrow=none;html=1;strokeColor=#7EA6E0;strokeWidth=1;dashed=1;" edge="1" parent="1">
          <mxGeometry width="50" height="50" relative="1" as="geometry">
            <mxPoint x="490.92999999999995" y="560" as="sourcePoint" />
            <mxPoint x="490.92999999999995" y="540" as="targetPoint" />
          </mxGeometry>
        </mxCell>
        <mxCell id="jpzbYG29YEpEbXQin0qu-68" value="" style="endArrow=none;html=1;dashed=1;strokeColor=#7EA6E0;" edge="1" parent="1">
          <mxGeometry width="50" height="50" relative="1" as="geometry">
            <mxPoint x="430.94999999999993" y="510" as="sourcePoint" />
            <mxPoint x="450.94999999999993" y="500" as="targetPoint" />
          </mxGeometry>
        </mxCell>
        <mxCell id="jpzbYG29YEpEbXQin0qu-69" value="" style="endArrow=none;html=1;dashed=1;strokeColor=#7EA6E0;" edge="1" parent="1">
          <mxGeometry width="50" height="50" relative="1" as="geometry">
            <mxPoint x="430.94999999999993" y="510" as="sourcePoint" />
            <mxPoint x="410.94999999999993" y="500" as="targetPoint" />
          </mxGeometry>
        </mxCell>
        <mxCell id="jpzbYG29YEpEbXQin0qu-70" value="" style="endArrow=none;html=1;dashed=1;strokeColor=#7EA6E0;" edge="1" parent="1">
          <mxGeometry width="50" height="50" relative="1" as="geometry">
            <mxPoint x="450.94999999999993" y="500" as="sourcePoint" />
            <mxPoint x="450.94999999999993" y="490" as="targetPoint" />
          </mxGeometry>
        </mxCell>
        <mxCell id="jpzbYG29YEpEbXQin0qu-71" value="" style="endArrow=none;html=1;dashed=1;strokeColor=#7EA6E0;" edge="1" parent="1">
          <mxGeometry width="50" height="50" relative="1" as="geometry">
            <mxPoint x="470.94999999999993" y="510" as="sourcePoint" />
            <mxPoint x="450.94999999999993" y="500" as="targetPoint" />
          </mxGeometry>
        </mxCell>
        <mxCell id="jpzbYG29YEpEbXQin0qu-75" value="" style="endArrow=none;html=1;dashed=1;strokeColor=#7EA6E0;" edge="1" parent="1">
          <mxGeometry width="50" height="50" relative="1" as="geometry">
            <mxPoint x="430.94999999999993" y="510" as="sourcePoint" />
            <mxPoint x="450.94999999999993" y="500" as="targetPoint" />
          </mxGeometry>
        </mxCell>
        <mxCell id="jpzbYG29YEpEbXQin0qu-76" value="" style="endArrow=none;html=1;dashed=1;strokeColor=#7EA6E0;" edge="1" parent="1">
          <mxGeometry width="50" height="50" relative="1" as="geometry">
            <mxPoint x="430.94999999999993" y="510" as="sourcePoint" />
            <mxPoint x="410.94999999999993" y="500" as="targetPoint" />
          </mxGeometry>
        </mxCell>
        <mxCell id="jpzbYG29YEpEbXQin0qu-77" value="" style="endArrow=none;html=1;dashed=1;strokeColor=#7EA6E0;" edge="1" parent="1">
          <mxGeometry width="50" height="50" relative="1" as="geometry">
            <mxPoint x="470.94999999999993" y="510" as="sourcePoint" />
            <mxPoint x="450.94999999999993" y="500" as="targetPoint" />
          </mxGeometry>
        </mxCell>
        <mxCell id="jpzbYG29YEpEbXQin0qu-85" value="" style="endArrow=none;html=1;dashed=1;strokeColor=#7EA6E0;" edge="1" parent="1">
          <mxGeometry width="50" height="50" relative="1" as="geometry">
            <mxPoint x="430.94999999999993" y="530" as="sourcePoint" />
            <mxPoint x="430.94999999999993" y="510" as="targetPoint" />
          </mxGeometry>
        </mxCell>
        <mxCell id="jpzbYG29YEpEbXQin0qu-86" value="" style="endArrow=none;html=1;dashed=1;strokeColor=#7EA6E0;" edge="1" parent="1">
          <mxGeometry width="50" height="50" relative="1" as="geometry">
            <mxPoint x="410.94999999999993" y="540" as="sourcePoint" />
            <mxPoint x="430.94999999999993" y="530" as="targetPoint" />
          </mxGeometry>
        </mxCell>
        <mxCell id="jpzbYG29YEpEbXQin0qu-87" value="" style="endArrow=none;html=1;dashed=1;strokeColor=#7EA6E0;" edge="1" parent="1">
          <mxGeometry width="50" height="50" relative="1" as="geometry">
            <mxPoint x="410.94999999999993" y="540" as="sourcePoint" />
            <mxPoint x="390.94999999999993" y="530" as="targetPoint" />
          </mxGeometry>
        </mxCell>
        <mxCell id="jpzbYG29YEpEbXQin0qu-88" value="" style="endArrow=none;html=1;strokeColor=#7EA6E0;startArrow=none;strokeWidth=1;dashed=1;" edge="1" parent="1">
          <mxGeometry width="50" height="50" relative="1" as="geometry">
            <mxPoint x="413.63328157299975" y="501.3116407864999" as="sourcePoint" />
            <mxPoint x="430.94999999999993" y="510" as="targetPoint" />
          </mxGeometry>
        </mxCell>
        <mxCell id="jpzbYG29YEpEbXQin0qu-89" value="" style="endArrow=none;html=1;dashed=1;strokeColor=#7EA6E0;" edge="1" parent="1">
          <mxGeometry width="50" height="50" relative="1" as="geometry">
            <mxPoint x="430.94999999999993" y="530" as="sourcePoint" />
            <mxPoint x="430.94999999999993" y="510" as="targetPoint" />
          </mxGeometry>
        </mxCell>
        <mxCell id="jpzbYG29YEpEbXQin0qu-90" value="" style="endArrow=none;html=1;strokeColor=#00CC00;strokeWidth=3;" edge="1" parent="1">
          <mxGeometry width="50" height="50" relative="1" as="geometry">
            <mxPoint x="430.94999999999993" y="530" as="sourcePoint" />
            <mxPoint x="430.94999999999993" y="510" as="targetPoint" />
          </mxGeometry>
        </mxCell>
        <mxCell id="jpzbYG29YEpEbXQin0qu-91" value="" style="endArrow=none;html=1;dashed=1;strokeColor=#7EA6E0;" edge="1" parent="1">
          <mxGeometry width="50" height="50" relative="1" as="geometry">
            <mxPoint x="470.94999999999993" y="530" as="sourcePoint" />
            <mxPoint x="470.94999999999993" y="510" as="targetPoint" />
          </mxGeometry>
        </mxCell>
        <mxCell id="jpzbYG29YEpEbXQin0qu-92" value="" style="endArrow=none;html=1;dashed=1;strokeColor=#7EA6E0;" edge="1" parent="1">
          <mxGeometry width="50" height="50" relative="1" as="geometry">
            <mxPoint x="450.94999999999993" y="540" as="sourcePoint" />
            <mxPoint x="470.94999999999993" y="530" as="targetPoint" />
          </mxGeometry>
        </mxCell>
        <mxCell id="jpzbYG29YEpEbXQin0qu-93" value="" style="endArrow=none;html=1;dashed=1;strokeColor=#7EA6E0;" edge="1" parent="1">
          <mxGeometry width="50" height="50" relative="1" as="geometry">
            <mxPoint x="450.94999999999993" y="540" as="sourcePoint" />
            <mxPoint x="430.94999999999993" y="530" as="targetPoint" />
          </mxGeometry>
        </mxCell>
        <mxCell id="jpzbYG29YEpEbXQin0qu-94" value="" style="endArrow=none;html=1;strokeColor=#00CC00;strokeWidth=3;" edge="1" parent="1">
          <mxGeometry width="50" height="50" relative="1" as="geometry">
            <mxPoint x="430.94999999999993" y="510" as="sourcePoint" />
            <mxPoint x="450.94999999999993" y="500" as="targetPoint" />
          </mxGeometry>
        </mxCell>
        <mxCell id="jpzbYG29YEpEbXQin0qu-95" value="" style="endArrow=none;html=1;strokeColor=#00CC00;strokeWidth=3;" edge="1" parent="1">
          <mxGeometry width="50" height="50" relative="1" as="geometry">
            <mxPoint x="450.94999999999993" y="500" as="sourcePoint" />
            <mxPoint x="470.94999999999993" y="510" as="targetPoint" />
          </mxGeometry>
        </mxCell>
        <mxCell id="jpzbYG29YEpEbXQin0qu-96" value="" style="endArrow=none;html=1;dashed=1;strokeColor=#7EA6E0;" edge="1" parent="1">
          <mxGeometry width="50" height="50" relative="1" as="geometry">
            <mxPoint x="470.94999999999993" y="530" as="sourcePoint" />
            <mxPoint x="470.94999999999993" y="510" as="targetPoint" />
          </mxGeometry>
        </mxCell>
        <mxCell id="jpzbYG29YEpEbXQin0qu-97" value="" style="endArrow=none;html=1;dashed=1;strokeColor=#7EA6E0;" edge="1" parent="1">
          <mxGeometry width="50" height="50" relative="1" as="geometry">
            <mxPoint x="470.94999999999993" y="530" as="sourcePoint" />
            <mxPoint x="470.94999999999993" y="510" as="targetPoint" />
          </mxGeometry>
        </mxCell>
        <mxCell id="jpzbYG29YEpEbXQin0qu-101" value="" style="endArrow=none;html=1;dashed=1;strokeColor=#7EA6E0;" edge="1" parent="1">
          <mxGeometry width="50" height="50" relative="1" as="geometry">
            <mxPoint x="410.94999999999993" y="540" as="sourcePoint" />
            <mxPoint x="430.94999999999993" y="530" as="targetPoint" />
          </mxGeometry>
        </mxCell>
        <mxCell id="jpzbYG29YEpEbXQin0qu-102" value="" style="endArrow=none;html=1;dashed=1;strokeColor=#7EA6E0;" edge="1" parent="1">
          <mxGeometry width="50" height="50" relative="1" as="geometry">
            <mxPoint x="410.94999999999993" y="540" as="sourcePoint" />
            <mxPoint x="390.94999999999993" y="530" as="targetPoint" />
          </mxGeometry>
        </mxCell>
        <mxCell id="jpzbYG29YEpEbXQin0qu-103" value="" style="endArrow=none;html=1;dashed=1;strokeColor=#7EA6E0;" edge="1" parent="1">
          <mxGeometry width="50" height="50" relative="1" as="geometry">
            <mxPoint x="450.94999999999993" y="540" as="sourcePoint" />
            <mxPoint x="470.94999999999993" y="530" as="targetPoint" />
          </mxGeometry>
        </mxCell>
        <mxCell id="jpzbYG29YEpEbXQin0qu-104" value="" style="endArrow=none;html=1;strokeColor=#7EA6E0;strokeWidth=1;dashed=1;" edge="1" parent="1">
          <mxGeometry width="50" height="50" relative="1" as="geometry">
            <mxPoint x="450.94999999999993" y="540" as="sourcePoint" />
            <mxPoint x="430.94999999999993" y="530" as="targetPoint" />
          </mxGeometry>
        </mxCell>
        <mxCell id="jpzbYG29YEpEbXQin0qu-111" value="" style="endArrow=none;html=1;dashed=1;strokeColor=#7EA6E0;" edge="1" parent="1">
          <mxGeometry width="50" height="50" relative="1" as="geometry">
            <mxPoint x="410.94999999999993" y="560" as="sourcePoint" />
            <mxPoint x="410.94999999999993" y="540" as="targetPoint" />
          </mxGeometry>
        </mxCell>
        <mxCell id="jpzbYG29YEpEbXQin0qu-112" value="" style="endArrow=none;html=1;dashed=1;strokeColor=#7EA6E0;" edge="1" parent="1">
          <mxGeometry width="50" height="50" relative="1" as="geometry">
            <mxPoint x="390.94999999999993" y="570" as="sourcePoint" />
            <mxPoint x="410.94999999999993" y="560" as="targetPoint" />
          </mxGeometry>
        </mxCell>
        <mxCell id="jpzbYG29YEpEbXQin0qu-113" value="" style="endArrow=none;html=1;dashed=1;strokeColor=#7EA6E0;" edge="1" parent="1">
          <mxGeometry width="50" height="50" relative="1" as="geometry">
            <mxPoint x="390.94999999999993" y="570" as="sourcePoint" />
            <mxPoint x="370.94999999999993" y="560" as="targetPoint" />
          </mxGeometry>
        </mxCell>
        <mxCell id="jpzbYG29YEpEbXQin0qu-115" value="" style="endArrow=none;html=1;dashed=1;strokeColor=#7EA6E0;" edge="1" parent="1">
          <mxGeometry width="50" height="50" relative="1" as="geometry">
            <mxPoint x="390.94999999999993" y="530" as="sourcePoint" />
            <mxPoint x="410.94999999999993" y="540" as="targetPoint" />
          </mxGeometry>
        </mxCell>
        <mxCell id="jpzbYG29YEpEbXQin0qu-116" value="" style="endArrow=none;html=1;dashed=1;strokeColor=#7EA6E0;" edge="1" parent="1">
          <mxGeometry width="50" height="50" relative="1" as="geometry">
            <mxPoint x="410.94999999999993" y="560" as="sourcePoint" />
            <mxPoint x="410.94999999999993" y="540" as="targetPoint" />
          </mxGeometry>
        </mxCell>
        <mxCell id="jpzbYG29YEpEbXQin0qu-117" value="" style="endArrow=none;html=1;strokeColor=#00CC00;strokeWidth=3;" edge="1" parent="1">
          <mxGeometry width="50" height="50" relative="1" as="geometry">
            <mxPoint x="410.94999999999993" y="560" as="sourcePoint" />
            <mxPoint x="410.94999999999993" y="540" as="targetPoint" />
          </mxGeometry>
        </mxCell>
        <mxCell id="jpzbYG29YEpEbXQin0qu-118" value="" style="endArrow=none;html=1;dashed=1;strokeColor=#7EA6E0;" edge="1" parent="1">
          <mxGeometry width="50" height="50" relative="1" as="geometry">
            <mxPoint x="450.94999999999993" y="560" as="sourcePoint" />
            <mxPoint x="450.94999999999993" y="540" as="targetPoint" />
          </mxGeometry>
        </mxCell>
        <mxCell id="jpzbYG29YEpEbXQin0qu-119" value="" style="endArrow=none;html=1;dashed=1;strokeColor=#7EA6E0;" edge="1" parent="1">
          <mxGeometry width="50" height="50" relative="1" as="geometry">
            <mxPoint x="430.94999999999993" y="570" as="sourcePoint" />
            <mxPoint x="450.94999999999993" y="560" as="targetPoint" />
          </mxGeometry>
        </mxCell>
        <mxCell id="jpzbYG29YEpEbXQin0qu-120" value="" style="endArrow=none;html=1;dashed=1;strokeColor=#7EA6E0;" edge="1" parent="1">
          <mxGeometry width="50" height="50" relative="1" as="geometry">
            <mxPoint x="430.94999999999993" y="570" as="sourcePoint" />
            <mxPoint x="410.94999999999993" y="560" as="targetPoint" />
          </mxGeometry>
        </mxCell>
        <mxCell id="jpzbYG29YEpEbXQin0qu-121" value="" style="endArrow=none;html=1;strokeColor=#00CC00;strokeWidth=3;" edge="1" parent="1">
          <mxGeometry width="50" height="50" relative="1" as="geometry">
            <mxPoint x="410.94999999999993" y="540" as="sourcePoint" />
            <mxPoint x="430.94999999999993" y="530" as="targetPoint" />
          </mxGeometry>
        </mxCell>
        <mxCell id="jpzbYG29YEpEbXQin0qu-122" value="" style="endArrow=none;html=1;dashed=1;strokeColor=#7EA6E0;" edge="1" parent="1">
          <mxGeometry width="50" height="50" relative="1" as="geometry">
            <mxPoint x="450.94999999999993" y="560" as="sourcePoint" />
            <mxPoint x="450.94999999999993" y="540" as="targetPoint" />
          </mxGeometry>
        </mxCell>
        <mxCell id="jpzbYG29YEpEbXQin0qu-123" value="" style="endArrow=none;html=1;strokeColor=#00CC00;strokeWidth=3;" edge="1" parent="1">
          <mxGeometry width="50" height="50" relative="1" as="geometry">
            <mxPoint x="450.94999999999993" y="560" as="sourcePoint" />
            <mxPoint x="450.94999999999993" y="540" as="targetPoint" />
          </mxGeometry>
        </mxCell>
        <mxCell id="jpzbYG29YEpEbXQin0qu-124" value="" style="endArrow=none;html=1;strokeColor=#00CC00;strokeWidth=3;" edge="1" parent="1">
          <mxGeometry width="50" height="50" relative="1" as="geometry">
            <mxPoint x="450.94999999999993" y="540" as="sourcePoint" />
            <mxPoint x="470.94999999999993" y="530" as="targetPoint" />
          </mxGeometry>
        </mxCell>
        <mxCell id="jpzbYG29YEpEbXQin0qu-128" value="" style="endArrow=none;html=1;dashed=1;strokeColor=#7EA6E0;" edge="1" parent="1">
          <mxGeometry width="50" height="50" relative="1" as="geometry">
            <mxPoint x="390.94999999999993" y="570" as="sourcePoint" />
            <mxPoint x="410.94999999999993" y="560" as="targetPoint" />
          </mxGeometry>
        </mxCell>
        <mxCell id="jpzbYG29YEpEbXQin0qu-129" value="" style="endArrow=none;html=1;dashed=1;strokeColor=#7EA6E0;" edge="1" parent="1">
          <mxGeometry width="50" height="50" relative="1" as="geometry">
            <mxPoint x="390.94999999999993" y="570" as="sourcePoint" />
            <mxPoint x="370.94999999999993" y="560" as="targetPoint" />
          </mxGeometry>
        </mxCell>
        <mxCell id="jpzbYG29YEpEbXQin0qu-130" value="" style="endArrow=none;html=1;dashed=1;strokeColor=#7EA6E0;" edge="1" parent="1">
          <mxGeometry width="50" height="50" relative="1" as="geometry">
            <mxPoint x="430.94999999999993" y="570" as="sourcePoint" />
            <mxPoint x="450.94999999999993" y="560" as="targetPoint" />
          </mxGeometry>
        </mxCell>
        <mxCell id="jpzbYG29YEpEbXQin0qu-131" value="" style="endArrow=none;html=1;dashed=1;strokeColor=#7EA6E0;" edge="1" parent="1">
          <mxGeometry width="50" height="50" relative="1" as="geometry">
            <mxPoint x="430.94999999999993" y="570" as="sourcePoint" />
            <mxPoint x="410.94999999999993" y="560" as="targetPoint" />
          </mxGeometry>
        </mxCell>
        <mxCell id="jpzbYG29YEpEbXQin0qu-135" value="" style="endArrow=none;html=1;strokeColor=#00CC00;strokeWidth=3;" edge="1" parent="1">
          <mxGeometry width="50" height="50" relative="1" as="geometry">
            <mxPoint x="370.94999999999993" y="560" as="sourcePoint" />
            <mxPoint x="390.94999999999993" y="570" as="targetPoint" />
          </mxGeometry>
        </mxCell>
        <mxCell id="jpzbYG29YEpEbXQin0qu-136" value="" style="endArrow=none;html=1;strokeColor=#00CC00;exitX=0.5;exitY=0;exitDx=0;exitDy=0;strokeWidth=3;" edge="1" parent="1" source="jpzbYG29YEpEbXQin0qu-283">
          <mxGeometry width="50" height="50" relative="1" as="geometry">
            <mxPoint x="390.94999999999993" y="580" as="sourcePoint" />
            <mxPoint x="390.94999999999993" y="570" as="targetPoint" />
          </mxGeometry>
        </mxCell>
        <mxCell id="jpzbYG29YEpEbXQin0qu-137" value="" style="endArrow=none;html=1;strokeColor=#7EA6E0;strokeWidth=1;dashed=1;" edge="1" parent="1">
          <mxGeometry width="50" height="50" relative="1" as="geometry">
            <mxPoint x="390.94999999999993" y="570" as="sourcePoint" />
            <mxPoint x="410.94999999999993" y="560" as="targetPoint" />
          </mxGeometry>
        </mxCell>
        <mxCell id="jpzbYG29YEpEbXQin0qu-138" value="" style="endArrow=none;html=1;strokeColor=#00CC00;strokeWidth=3;" edge="1" parent="1">
          <mxGeometry width="50" height="50" relative="1" as="geometry">
            <mxPoint x="410.94999999999993" y="560" as="sourcePoint" />
            <mxPoint x="430.94999999999993" y="570" as="targetPoint" />
          </mxGeometry>
        </mxCell>
        <mxCell id="jpzbYG29YEpEbXQin0qu-139" value="" style="endArrow=none;html=1;strokeColor=#7EA6E0;exitX=0.5;exitY=0;exitDx=0;exitDy=0;strokeWidth=1;dashed=1;" edge="1" parent="1" source="jpzbYG29YEpEbXQin0qu-295">
          <mxGeometry width="50" height="50" relative="1" as="geometry">
            <mxPoint x="430.94999999999993" y="580" as="sourcePoint" />
            <mxPoint x="430.94999999999993" y="570" as="targetPoint" />
          </mxGeometry>
        </mxCell>
        <mxCell id="jpzbYG29YEpEbXQin0qu-140" value="" style="endArrow=none;html=1;strokeColor=#00CC00;strokeWidth=3;" edge="1" parent="1">
          <mxGeometry width="50" height="50" relative="1" as="geometry">
            <mxPoint x="430.94999999999993" y="570" as="sourcePoint" />
            <mxPoint x="450.94999999999993" y="560" as="targetPoint" />
          </mxGeometry>
        </mxCell>
        <mxCell id="jpzbYG29YEpEbXQin0qu-141" value="" style="endArrow=none;html=1;strokeColor=#000000;exitX=1;exitY=0.5;exitDx=0;exitDy=0;" edge="1" parent="1" source="jpzbYG29YEpEbXQin0qu-160">
          <mxGeometry width="50" height="50" relative="1" as="geometry">
            <mxPoint x="313.94999999999993" y="550" as="sourcePoint" />
            <mxPoint x="510.94999999999993" y="550" as="targetPoint" />
          </mxGeometry>
        </mxCell>
        <mxCell id="jpzbYG29YEpEbXQin0qu-142" value="" style="endArrow=none;html=1;strokeColor=#000000;entryX=0;entryY=1;entryDx=0;entryDy=0;exitX=1;exitY=0;exitDx=0;exitDy=0;" edge="1" parent="1" source="jpzbYG29YEpEbXQin0qu-270" target="jpzbYG29YEpEbXQin0qu-155">
          <mxGeometry width="50" height="50" relative="1" as="geometry">
            <mxPoint x="410.94999999999993" y="580" as="sourcePoint" />
            <mxPoint x="490.94999999999993" y="460" as="targetPoint" />
          </mxGeometry>
        </mxCell>
        <mxCell id="jpzbYG29YEpEbXQin0qu-143" value="" style="endArrow=none;html=1;strokeColor=#000000;dashed=1;exitX=1;exitY=0.5;exitDx=0;exitDy=0;" edge="1" parent="1" source="jpzbYG29YEpEbXQin0qu-154">
          <mxGeometry width="50" height="50" relative="1" as="geometry">
            <mxPoint x="353.95000000000005" y="490" as="sourcePoint" />
            <mxPoint x="550.9499999999999" y="490" as="targetPoint" />
            <Array as="points">
              <mxPoint x="440" y="490" />
            </Array>
          </mxGeometry>
        </mxCell>
        <mxCell id="jpzbYG29YEpEbXQin0qu-144" value="" style="endArrow=none;html=1;strokeColor=#000000;exitX=1;exitY=0.5;exitDx=0;exitDy=0;" edge="1" parent="1" source="jpzbYG29YEpEbXQin0qu-157">
          <mxGeometry width="50" height="50" relative="1" as="geometry">
            <mxPoint x="333.94999999999993" y="520" as="sourcePoint" />
            <mxPoint x="530.9499999999999" y="520" as="targetPoint" />
            <Array as="points" />
          </mxGeometry>
        </mxCell>
        <mxCell id="jpzbYG29YEpEbXQin0qu-147" value="" style="endArrow=none;html=1;strokeColor=#000000;entryX=1;entryY=1;entryDx=0;entryDy=0;" edge="1" parent="1" source="jpzbYG29YEpEbXQin0qu-321" target="jpzbYG29YEpEbXQin0qu-160">
          <mxGeometry width="50" height="50" relative="1" as="geometry">
            <mxPoint x="410.94999999999993" y="580" as="sourcePoint" />
            <mxPoint x="330.94999999999993" y="460" as="targetPoint" />
          </mxGeometry>
        </mxCell>
        <mxCell id="jpzbYG29YEpEbXQin0qu-148" value="" style="endArrow=none;html=1;strokeColor=#000000;entryX=1;entryY=1;entryDx=0;entryDy=0;exitX=0;exitY=0;exitDx=0;exitDy=0;" edge="1" parent="1" source="jpzbYG29YEpEbXQin0qu-288" target="jpzbYG29YEpEbXQin0qu-263">
          <mxGeometry width="50" height="50" relative="1" as="geometry">
            <mxPoint x="370.94999999999993" y="580" as="sourcePoint" />
            <mxPoint x="333.0713203435596" y="522.1213203435597" as="targetPoint" />
          </mxGeometry>
        </mxCell>
        <mxCell id="jpzbYG29YEpEbXQin0qu-149" value="" style="endArrow=none;html=1;strokeColor=#000000;entryX=1;entryY=1;entryDx=0;entryDy=0;exitX=0;exitY=0;exitDx=0;exitDy=0;" edge="1" parent="1" source="jpzbYG29YEpEbXQin0qu-320" target="jpzbYG29YEpEbXQin0qu-157">
          <mxGeometry width="50" height="50" relative="1" as="geometry">
            <mxPoint x="450.94999999999993" y="580" as="sourcePoint" />
            <mxPoint x="370.94999999999993" y="460" as="targetPoint" />
          </mxGeometry>
        </mxCell>
        <mxCell id="jpzbYG29YEpEbXQin0qu-150" value="" style="endArrow=none;html=1;strokeColor=#000000;entryX=1;entryY=1;entryDx=0;entryDy=0;" edge="1" parent="1" target="jpzbYG29YEpEbXQin0qu-154">
          <mxGeometry width="50" height="50" relative="1" as="geometry">
            <mxPoint x="490.94999999999993" y="580" as="sourcePoint" />
            <mxPoint x="410.94999999999993" y="460" as="targetPoint" />
          </mxGeometry>
        </mxCell>
        <mxCell id="jpzbYG29YEpEbXQin0qu-151" value="" style="endArrow=none;html=1;strokeColor=#000000;entryX=1;entryY=1;entryDx=0;entryDy=0;exitX=0;exitY=0;exitDx=0;exitDy=0;" edge="1" parent="1" source="jpzbYG29YEpEbXQin0qu-270" target="jpzbYG29YEpEbXQin0qu-266">
          <mxGeometry width="50" height="50" relative="1" as="geometry">
            <mxPoint x="330.94999999999993" y="580" as="sourcePoint" />
            <mxPoint x="313.0713203435596" y="552.1213203435595" as="targetPoint" />
          </mxGeometry>
        </mxCell>
        <mxCell id="jpzbYG29YEpEbXQin0qu-152" value="" style="endArrow=none;html=1;strokeColor=#000000;exitX=1;exitY=0.5;exitDx=0;exitDy=0;" edge="1" parent="1" source="jpzbYG29YEpEbXQin0qu-263">
          <mxGeometry width="50" height="50" relative="1" as="geometry">
            <mxPoint x="293.94999999999993" y="580" as="sourcePoint" />
            <mxPoint x="490.94999999999993" y="580" as="targetPoint" />
          </mxGeometry>
        </mxCell>
        <mxCell id="jpzbYG29YEpEbXQin0qu-155" value="" style="ellipse;whiteSpace=wrap;html=1;rotation=0;strokeColor=#3333FF;fillColor=#7EA6E0;" vertex="1" parent="1">
          <mxGeometry x="467.94999999999993" y="487" width="6" height="6" as="geometry" />
        </mxCell>
        <mxCell id="jpzbYG29YEpEbXQin0qu-158" value="" style="ellipse;whiteSpace=wrap;html=1;rotation=0;strokeColor=#3333FF;fillColor=#FFFFFF;" vertex="1" parent="1">
          <mxGeometry x="447.94999999999993" y="517" width="6" height="6" as="geometry" />
        </mxCell>
        <mxCell id="jpzbYG29YEpEbXQin0qu-161" value="" style="ellipse;whiteSpace=wrap;html=1;rotation=0;strokeColor=#3333FF;" vertex="1" parent="1">
          <mxGeometry x="427.94999999999993" y="547" width="6" height="6" as="geometry" />
        </mxCell>
        <mxCell id="jpzbYG29YEpEbXQin0qu-164" value="" style="ellipse;whiteSpace=wrap;html=1;rotation=0;strokeColor=#3333FF;" vertex="1" parent="1">
          <mxGeometry x="367.94999999999993" y="577" width="6" height="6" as="geometry" />
        </mxCell>
        <mxCell id="jpzbYG29YEpEbXQin0qu-165" value="" style="ellipse;whiteSpace=wrap;html=1;rotation=0;strokeColor=#3333FF;" vertex="1" parent="1">
          <mxGeometry x="407.94999999999993" y="577" width="6" height="6" as="geometry" />
        </mxCell>
        <mxCell id="jpzbYG29YEpEbXQin0qu-168" value="" style="endArrow=none;html=1;dashed=1;strokeColor=#7EA6E0;" edge="1" parent="1">
          <mxGeometry width="50" height="50" relative="1" as="geometry">
            <mxPoint x="410.94999999999993" y="500" as="sourcePoint" />
            <mxPoint x="410.94999999999993" y="500" as="targetPoint" />
          </mxGeometry>
        </mxCell>
        <mxCell id="jpzbYG29YEpEbXQin0qu-176" value="" style="ellipse;whiteSpace=wrap;html=1;rotation=0;strokeColor=#FF3333;" vertex="1" parent="1">
          <mxGeometry x="407.9" y="536.49" width="6" height="6" as="geometry" />
        </mxCell>
        <mxCell id="jpzbYG29YEpEbXQin0qu-181" value="" style="ellipse;whiteSpace=wrap;html=1;rotation=0;strokeColor=#FF3333;" vertex="1" parent="1">
          <mxGeometry x="427.94999999999993" y="505.97" width="6" height="6" as="geometry" />
        </mxCell>
        <mxCell id="jpzbYG29YEpEbXQin0qu-182" value="" style="ellipse;whiteSpace=wrap;html=1;rotation=0;strokeColor=#FF3333;" vertex="1" parent="1">
          <mxGeometry x="447.94999999999993" y="496.97" width="6" height="6" as="geometry" />
        </mxCell>
        <mxCell id="jpzbYG29YEpEbXQin0qu-183" value="" style="endArrow=none;html=1;dashed=1;strokeColor=#7EA6E0;" edge="1" parent="1" target="jpzbYG29YEpEbXQin0qu-184">
          <mxGeometry width="50" height="50" relative="1" as="geometry">
            <mxPoint x="430.94999999999993" y="530" as="sourcePoint" />
            <mxPoint x="450.94999999999993" y="540" as="targetPoint" />
          </mxGeometry>
        </mxCell>
        <mxCell id="jpzbYG29YEpEbXQin0qu-184" value="" style="ellipse;whiteSpace=wrap;html=1;rotation=0;strokeColor=#FF3333;" vertex="1" parent="1">
          <mxGeometry x="427.94999999999993" y="527.49" width="6" height="6" as="geometry" />
        </mxCell>
        <mxCell id="jpzbYG29YEpEbXQin0qu-185" value="" style="endArrow=none;html=1;strokeColor=#000000;entryX=0;entryY=1;entryDx=0;entryDy=0;exitX=1;exitY=0;exitDx=0;exitDy=0;" edge="1" parent="1" source="jpzbYG29YEpEbXQin0qu-288">
          <mxGeometry width="50" height="50" relative="1" as="geometry">
            <mxPoint x="451.2599999999999" y="579.52" as="sourcePoint" />
            <mxPoint x="509.13867965644033" y="491.6413203435595" as="targetPoint" />
          </mxGeometry>
        </mxCell>
        <mxCell id="jpzbYG29YEpEbXQin0qu-186" value="" style="ellipse;whiteSpace=wrap;html=1;rotation=0;strokeColor=#FF3333;" vertex="1" parent="1">
          <mxGeometry x="447.94999999999993" y="535.52" width="6" height="6" as="geometry" />
        </mxCell>
        <mxCell id="jpzbYG29YEpEbXQin0qu-187" value="" style="ellipse;whiteSpace=wrap;html=1;rotation=0;strokeColor=#FF3333;" vertex="1" parent="1">
          <mxGeometry x="427.94999999999993" y="566.49" width="6" height="6" as="geometry" />
        </mxCell>
        <mxCell id="jpzbYG29YEpEbXQin0qu-188" value="" style="endArrow=none;html=1;strokeColor=#000000;entryX=1;entryY=1;entryDx=0;entryDy=0;" edge="1" parent="1">
          <mxGeometry width="50" height="50" relative="1" as="geometry">
            <mxPoint x="510.89" y="549.94" as="sourcePoint" />
            <mxPoint x="473.01132034355953" y="492.0613203435596" as="targetPoint" />
          </mxGeometry>
        </mxCell>
        <mxCell id="jpzbYG29YEpEbXQin0qu-189" value="" style="endArrow=none;html=1;strokeColor=#000000;entryX=1;entryY=1;entryDx=0;entryDy=0;" edge="1" parent="1">
          <mxGeometry width="50" height="50" relative="1" as="geometry">
            <mxPoint x="530.9499999999999" y="520" as="sourcePoint" />
            <mxPoint x="511.0713203435595" y="490.0613203435596" as="targetPoint" />
          </mxGeometry>
        </mxCell>
        <mxCell id="jpzbYG29YEpEbXQin0qu-190" value="" style="ellipse;whiteSpace=wrap;html=1;rotation=0;strokeColor=#3333FF;" vertex="1" parent="1">
          <mxGeometry x="507.8499999999999" y="487" width="6" height="6" as="geometry" />
        </mxCell>
        <mxCell id="jpzbYG29YEpEbXQin0qu-191" value="" style="ellipse;whiteSpace=wrap;html=1;rotation=0;strokeColor=#3333FF;fillColor=#FFFFFF;" vertex="1" parent="1">
          <mxGeometry x="487.8499999999999" y="517" width="6" height="6" as="geometry" />
        </mxCell>
        <mxCell id="jpzbYG29YEpEbXQin0qu-192" value="" style="ellipse;whiteSpace=wrap;html=1;rotation=0;strokeColor=#3333FF;fillColor=#7EA6E0;" vertex="1" parent="1">
          <mxGeometry x="467.8499999999999" y="547" width="6" height="6" as="geometry" />
        </mxCell>
        <mxCell id="jpzbYG29YEpEbXQin0qu-193" value="" style="ellipse;whiteSpace=wrap;html=1;rotation=0;strokeColor=#3333FF;" vertex="1" parent="1">
          <mxGeometry x="447.8499999999999" y="577" width="6" height="6" as="geometry" />
        </mxCell>
        <mxCell id="jpzbYG29YEpEbXQin0qu-194" value="" style="ellipse;whiteSpace=wrap;html=1;rotation=0;strokeColor=#3333FF;" vertex="1" parent="1">
          <mxGeometry x="487.8499999999999" y="577" width="6" height="6" as="geometry" />
        </mxCell>
        <mxCell id="jpzbYG29YEpEbXQin0qu-195" value="" style="endArrow=none;html=1;dashed=1;strokeColor=#7EA6E0;" edge="1" parent="1">
          <mxGeometry width="50" height="50" relative="1" as="geometry">
            <mxPoint x="470.9" y="530" as="sourcePoint" />
            <mxPoint x="470.9" y="510" as="targetPoint" />
          </mxGeometry>
        </mxCell>
        <mxCell id="jpzbYG29YEpEbXQin0qu-196" value="" style="endArrow=none;html=1;strokeColor=#00CC00;strokeWidth=3;" edge="1" parent="1">
          <mxGeometry width="50" height="50" relative="1" as="geometry">
            <mxPoint x="470.9" y="510" as="sourcePoint" />
            <mxPoint x="490.9" y="500" as="targetPoint" />
          </mxGeometry>
        </mxCell>
        <mxCell id="jpzbYG29YEpEbXQin0qu-197" value="" style="endArrow=none;html=1;strokeColor=#7EA6E0;strokeWidth=1;dashed=1;" edge="1" parent="1">
          <mxGeometry width="50" height="50" relative="1" as="geometry">
            <mxPoint x="490.9" y="500" as="sourcePoint" />
            <mxPoint x="510.9" y="510" as="targetPoint" />
          </mxGeometry>
        </mxCell>
        <mxCell id="jpzbYG29YEpEbXQin0qu-198" value="" style="endArrow=none;html=1;strokeColor=#00CC00;strokeWidth=3;" edge="1" parent="1">
          <mxGeometry width="50" height="50" relative="1" as="geometry">
            <mxPoint x="510.9" y="530" as="sourcePoint" />
            <mxPoint x="510.9" y="510" as="targetPoint" />
          </mxGeometry>
        </mxCell>
        <mxCell id="jpzbYG29YEpEbXQin0qu-199" value="" style="endArrow=none;html=1;strokeColor=#00CC00;strokeWidth=3;" edge="1" parent="1">
          <mxGeometry width="50" height="50" relative="1" as="geometry">
            <mxPoint x="490.9" y="540" as="sourcePoint" />
            <mxPoint x="470.9" y="530" as="targetPoint" />
          </mxGeometry>
        </mxCell>
        <mxCell id="jpzbYG29YEpEbXQin0qu-200" value="" style="endArrow=none;html=1;strokeColor=#00CC00;strokeWidth=3;" edge="1" parent="1">
          <mxGeometry width="50" height="50" relative="1" as="geometry">
            <mxPoint x="490.9" y="540" as="sourcePoint" />
            <mxPoint x="510.9" y="530" as="targetPoint" />
          </mxGeometry>
        </mxCell>
        <mxCell id="jpzbYG29YEpEbXQin0qu-201" value="" style="ellipse;whiteSpace=wrap;html=1;rotation=0;strokeColor=#FF3333;" vertex="1" parent="1">
          <mxGeometry x="487.9" y="535.52" width="6" height="6" as="geometry" />
        </mxCell>
        <mxCell id="jpzbYG29YEpEbXQin0qu-202" value="" style="endArrow=none;html=1;strokeColor=#7EA6E0;strokeWidth=1;dashed=1;" edge="1" parent="1">
          <mxGeometry width="50" height="50" relative="1" as="geometry">
            <mxPoint x="450.92999999999995" y="560" as="sourcePoint" />
            <mxPoint x="470.92999999999995" y="570" as="targetPoint" />
          </mxGeometry>
        </mxCell>
        <mxCell id="jpzbYG29YEpEbXQin0qu-203" value="" style="endArrow=none;html=1;strokeColor=#00CC00;strokeWidth=3;" edge="1" parent="1">
          <mxGeometry width="50" height="50" relative="1" as="geometry">
            <mxPoint x="470.92999999999995" y="570" as="sourcePoint" />
            <mxPoint x="490.92999999999995" y="560" as="targetPoint" />
          </mxGeometry>
        </mxCell>
        <mxCell id="jpzbYG29YEpEbXQin0qu-204" value="" style="ellipse;whiteSpace=wrap;html=1;rotation=0;strokeColor=#FF3333;" vertex="1" parent="1">
          <mxGeometry x="447.94999999999993" y="557.55" width="6" height="6" as="geometry" />
        </mxCell>
        <mxCell id="jpzbYG29YEpEbXQin0qu-205" value="" style="ellipse;whiteSpace=wrap;html=1;rotation=0;strokeColor=#FF3333;" vertex="1" parent="1">
          <mxGeometry x="467.94999999999993" y="527.52" width="6" height="6" as="geometry" />
        </mxCell>
        <mxCell id="jpzbYG29YEpEbXQin0qu-206" value="" style="ellipse;whiteSpace=wrap;html=1;rotation=0;strokeColor=#FF3333;" vertex="1" parent="1">
          <mxGeometry x="467.94999999999993" y="505.97" width="6" height="6" as="geometry" />
        </mxCell>
        <mxCell id="jpzbYG29YEpEbXQin0qu-207" value="" style="endArrow=none;html=1;strokeColor=#00CC00;strokeWidth=3;" edge="1" parent="1">
          <mxGeometry width="50" height="50" relative="1" as="geometry">
            <mxPoint x="510.9" y="509.54999999999995" as="sourcePoint" />
            <mxPoint x="530.9" y="499.54999999999995" as="targetPoint" />
          </mxGeometry>
        </mxCell>
        <mxCell id="jpzbYG29YEpEbXQin0qu-208" value="" style="ellipse;whiteSpace=wrap;html=1;rotation=0;strokeColor=#FF3333;" vertex="1" parent="1">
          <mxGeometry x="507.9" y="505.97" width="6" height="6" as="geometry" />
        </mxCell>
        <mxCell id="jpzbYG29YEpEbXQin0qu-209" value="" style="endArrow=none;html=1;strokeColor=#00CC00;exitX=0.5;exitY=0;exitDx=0;exitDy=0;strokeWidth=3;" edge="1" parent="1" source="jpzbYG29YEpEbXQin0qu-306">
          <mxGeometry width="50" height="50" relative="1" as="geometry">
            <mxPoint x="470.7299999999999" y="579.52" as="sourcePoint" />
            <mxPoint x="470.7299999999999" y="569.52" as="targetPoint" />
          </mxGeometry>
        </mxCell>
        <mxCell id="jpzbYG29YEpEbXQin0qu-210" value="" style="ellipse;whiteSpace=wrap;html=1;rotation=0;strokeColor=#FF3333;" vertex="1" parent="1">
          <mxGeometry x="467.92999999999995" y="566.49" width="6" height="6" as="geometry" />
        </mxCell>
        <mxCell id="jpzbYG29YEpEbXQin0qu-211" value="" style="endArrow=none;html=1;strokeColor=#00CC00;strokeWidth=3;" edge="1" parent="1">
          <mxGeometry width="50" height="50" relative="1" as="geometry">
            <mxPoint x="490.78" y="499.52" as="sourcePoint" />
            <mxPoint x="490.78" y="489.52" as="targetPoint" />
          </mxGeometry>
        </mxCell>
        <mxCell id="jpzbYG29YEpEbXQin0qu-212" value="" style="endArrow=none;html=1;strokeColor=#00CC00;strokeWidth=3;" edge="1" parent="1">
          <mxGeometry width="50" height="50" relative="1" as="geometry">
            <mxPoint x="530.8299999999998" y="499.52" as="sourcePoint" />
            <mxPoint x="530.8299999999998" y="489.52" as="targetPoint" />
          </mxGeometry>
        </mxCell>
        <mxCell id="jpzbYG29YEpEbXQin0qu-213" value="" style="ellipse;whiteSpace=wrap;html=1;rotation=0;strokeColor=#FF3333;" vertex="1" parent="1">
          <mxGeometry x="487.9" y="496.97" width="6" height="6" as="geometry" />
        </mxCell>
        <mxCell id="jpzbYG29YEpEbXQin0qu-214" value="" style="endArrow=none;html=1;strokeColor=#7EA6E0;strokeWidth=1;dashed=1;" edge="1" parent="1">
          <mxGeometry width="50" height="50" relative="1" as="geometry">
            <mxPoint x="450.9799999999999" y="620" as="sourcePoint" />
            <mxPoint x="450.9799999999999" y="600" as="targetPoint" />
          </mxGeometry>
        </mxCell>
        <mxCell id="jpzbYG29YEpEbXQin0qu-218" value="" style="endArrow=none;html=1;dashed=1;strokeColor=#7EA6E0;" edge="1" parent="1">
          <mxGeometry width="50" height="50" relative="1" as="geometry">
            <mxPoint x="370.9999999999999" y="600" as="sourcePoint" />
            <mxPoint x="390.9999999999999" y="590" as="targetPoint" />
          </mxGeometry>
        </mxCell>
        <mxCell id="jpzbYG29YEpEbXQin0qu-219" value="" style="endArrow=none;html=1;dashed=1;strokeColor=#7EA6E0;" edge="1" parent="1">
          <mxGeometry width="50" height="50" relative="1" as="geometry">
            <mxPoint x="370.9999999999999" y="600" as="sourcePoint" />
            <mxPoint x="350.9999999999999" y="590" as="targetPoint" />
          </mxGeometry>
        </mxCell>
        <mxCell id="jpzbYG29YEpEbXQin0qu-220" value="" style="endArrow=none;html=1;dashed=1;strokeColor=#7EA6E0;" edge="1" parent="1">
          <mxGeometry width="50" height="50" relative="1" as="geometry">
            <mxPoint x="410.9999999999999" y="600" as="sourcePoint" />
            <mxPoint x="430.9999999999999" y="590" as="targetPoint" />
          </mxGeometry>
        </mxCell>
        <mxCell id="jpzbYG29YEpEbXQin0qu-221" value="" style="endArrow=none;html=1;strokeColor=#7EA6E0;strokeWidth=1;dashed=1;" edge="1" parent="1">
          <mxGeometry width="50" height="50" relative="1" as="geometry">
            <mxPoint x="410.9999999999999" y="600" as="sourcePoint" />
            <mxPoint x="390.9999999999999" y="590" as="targetPoint" />
          </mxGeometry>
        </mxCell>
        <mxCell id="jpzbYG29YEpEbXQin0qu-225" value="" style="endArrow=none;html=1;dashed=1;strokeColor=#7EA6E0;" edge="1" parent="1">
          <mxGeometry width="50" height="50" relative="1" as="geometry">
            <mxPoint x="370.9999999999999" y="600" as="sourcePoint" />
            <mxPoint x="390.9999999999999" y="590" as="targetPoint" />
          </mxGeometry>
        </mxCell>
        <mxCell id="jpzbYG29YEpEbXQin0qu-226" value="" style="endArrow=none;html=1;dashed=1;strokeColor=#7EA6E0;" edge="1" parent="1">
          <mxGeometry width="50" height="50" relative="1" as="geometry">
            <mxPoint x="370.9999999999999" y="600" as="sourcePoint" />
            <mxPoint x="350.9999999999999" y="590" as="targetPoint" />
          </mxGeometry>
        </mxCell>
        <mxCell id="jpzbYG29YEpEbXQin0qu-227" value="" style="endArrow=none;html=1;dashed=1;strokeColor=#7EA6E0;" edge="1" parent="1">
          <mxGeometry width="50" height="50" relative="1" as="geometry">
            <mxPoint x="410.9999999999999" y="600" as="sourcePoint" />
            <mxPoint x="430.9999999999999" y="590" as="targetPoint" />
          </mxGeometry>
        </mxCell>
        <mxCell id="jpzbYG29YEpEbXQin0qu-234" value="" style="endArrow=none;html=1;dashed=1;strokeColor=#7EA6E0;" edge="1" parent="1">
          <mxGeometry width="50" height="50" relative="1" as="geometry">
            <mxPoint x="370.9999999999999" y="620" as="sourcePoint" />
            <mxPoint x="370.9999999999999" y="600" as="targetPoint" />
          </mxGeometry>
        </mxCell>
        <mxCell id="jpzbYG29YEpEbXQin0qu-235" value="" style="endArrow=none;html=1;dashed=1;strokeColor=#7EA6E0;" edge="1" parent="1">
          <mxGeometry width="50" height="50" relative="1" as="geometry">
            <mxPoint x="350.9999999999999" y="630" as="sourcePoint" />
            <mxPoint x="370.9999999999999" y="620" as="targetPoint" />
          </mxGeometry>
        </mxCell>
        <mxCell id="jpzbYG29YEpEbXQin0qu-236" value="" style="endArrow=none;html=1;dashed=1;strokeColor=#7EA6E0;" edge="1" parent="1">
          <mxGeometry width="50" height="50" relative="1" as="geometry">
            <mxPoint x="350.9999999999999" y="630" as="sourcePoint" />
            <mxPoint x="330.9999999999999" y="620" as="targetPoint" />
          </mxGeometry>
        </mxCell>
        <mxCell id="jpzbYG29YEpEbXQin0qu-238" value="" style="endArrow=none;html=1;dashed=1;strokeColor=#7EA6E0;" edge="1" parent="1">
          <mxGeometry width="50" height="50" relative="1" as="geometry">
            <mxPoint x="370.9999999999999" y="620" as="sourcePoint" />
            <mxPoint x="370.9999999999999" y="600" as="targetPoint" />
          </mxGeometry>
        </mxCell>
        <mxCell id="jpzbYG29YEpEbXQin0qu-239" value="" style="endArrow=none;html=1;strokeColor=#00CC00;strokeWidth=3;" edge="1" parent="1">
          <mxGeometry width="50" height="50" relative="1" as="geometry">
            <mxPoint x="370.9999999999999" y="620" as="sourcePoint" />
            <mxPoint x="370.9999999999999" y="600" as="targetPoint" />
          </mxGeometry>
        </mxCell>
        <mxCell id="jpzbYG29YEpEbXQin0qu-240" value="" style="endArrow=none;html=1;dashed=1;strokeColor=#7EA6E0;" edge="1" parent="1">
          <mxGeometry width="50" height="50" relative="1" as="geometry">
            <mxPoint x="410.9999999999999" y="620" as="sourcePoint" />
            <mxPoint x="410.9999999999999" y="600" as="targetPoint" />
          </mxGeometry>
        </mxCell>
        <mxCell id="jpzbYG29YEpEbXQin0qu-241" value="" style="endArrow=none;html=1;dashed=1;strokeColor=#7EA6E0;" edge="1" parent="1">
          <mxGeometry width="50" height="50" relative="1" as="geometry">
            <mxPoint x="390.9999999999999" y="630" as="sourcePoint" />
            <mxPoint x="410.9999999999999" y="620" as="targetPoint" />
          </mxGeometry>
        </mxCell>
        <mxCell id="jpzbYG29YEpEbXQin0qu-242" value="" style="endArrow=none;html=1;dashed=1;strokeColor=#7EA6E0;" edge="1" parent="1">
          <mxGeometry width="50" height="50" relative="1" as="geometry">
            <mxPoint x="390.9999999999999" y="630" as="sourcePoint" />
            <mxPoint x="370.9999999999999" y="620" as="targetPoint" />
          </mxGeometry>
        </mxCell>
        <mxCell id="jpzbYG29YEpEbXQin0qu-243" value="" style="endArrow=none;html=1;strokeColor=#00CC00;strokeWidth=3;" edge="1" parent="1">
          <mxGeometry width="50" height="50" relative="1" as="geometry">
            <mxPoint x="370.9999999999999" y="600" as="sourcePoint" />
            <mxPoint x="390.9999999999999" y="590" as="targetPoint" />
          </mxGeometry>
        </mxCell>
        <mxCell id="jpzbYG29YEpEbXQin0qu-244" value="" style="endArrow=none;html=1;strokeColor=#00CC00;strokeWidth=3;" edge="1" parent="1">
          <mxGeometry width="50" height="50" relative="1" as="geometry">
            <mxPoint x="410.9999999999999" y="620" as="sourcePoint" />
            <mxPoint x="410.9999999999999" y="600" as="targetPoint" />
          </mxGeometry>
        </mxCell>
        <mxCell id="jpzbYG29YEpEbXQin0qu-245" value="" style="endArrow=none;html=1;strokeColor=#00CC00;strokeWidth=3;" edge="1" parent="1">
          <mxGeometry width="50" height="50" relative="1" as="geometry">
            <mxPoint x="410.9999999999999" y="600" as="sourcePoint" />
            <mxPoint x="430.9999999999999" y="590" as="targetPoint" />
          </mxGeometry>
        </mxCell>
        <mxCell id="jpzbYG29YEpEbXQin0qu-249" value="" style="endArrow=none;html=1;strokeColor=#00CC00;strokeWidth=3;" edge="1" parent="1">
          <mxGeometry width="50" height="50" relative="1" as="geometry">
            <mxPoint x="350.9999999999999" y="630" as="sourcePoint" />
            <mxPoint x="370.9999999999999" y="620" as="targetPoint" />
          </mxGeometry>
        </mxCell>
        <mxCell id="jpzbYG29YEpEbXQin0qu-250" value="" style="endArrow=none;html=1;strokeColor=#00CC00;strokeWidth=3;" edge="1" parent="1">
          <mxGeometry width="50" height="50" relative="1" as="geometry">
            <mxPoint x="350.9999999999999" y="630" as="sourcePoint" />
            <mxPoint x="330.9999999999999" y="620" as="targetPoint" />
          </mxGeometry>
        </mxCell>
        <mxCell id="jpzbYG29YEpEbXQin0qu-251" value="" style="endArrow=none;html=1;strokeColor=#00CC00;strokeWidth=3;" edge="1" parent="1">
          <mxGeometry width="50" height="50" relative="1" as="geometry">
            <mxPoint x="390.9999999999999" y="630" as="sourcePoint" />
            <mxPoint x="410.9999999999999" y="620" as="targetPoint" />
          </mxGeometry>
        </mxCell>
        <mxCell id="jpzbYG29YEpEbXQin0qu-252" value="" style="endArrow=none;html=1;dashed=1;strokeColor=#7EA6E0;" edge="1" parent="1">
          <mxGeometry width="50" height="50" relative="1" as="geometry">
            <mxPoint x="390.9999999999999" y="630" as="sourcePoint" />
            <mxPoint x="370.9999999999999" y="620" as="targetPoint" />
          </mxGeometry>
        </mxCell>
        <mxCell id="jpzbYG29YEpEbXQin0qu-256" value="" style="endArrow=none;html=1;dashed=1;strokeColor=#7EA6E0;" edge="1" parent="1">
          <mxGeometry width="50" height="50" relative="1" as="geometry">
            <mxPoint x="350.9999999999999" y="640" as="sourcePoint" />
            <mxPoint x="350.9999999999999" y="630" as="targetPoint" />
          </mxGeometry>
        </mxCell>
        <mxCell id="jpzbYG29YEpEbXQin0qu-257" value="" style="endArrow=none;html=1;strokeColor=#00CC00;strokeWidth=3;" edge="1" parent="1">
          <mxGeometry width="50" height="50" relative="1" as="geometry">
            <mxPoint x="390.9999999999999" y="640" as="sourcePoint" />
            <mxPoint x="390.9999999999999" y="630" as="targetPoint" />
          </mxGeometry>
        </mxCell>
        <mxCell id="jpzbYG29YEpEbXQin0qu-258" value="" style="endArrow=none;html=1;strokeColor=#000000;exitX=1;exitY=0.5;exitDx=0;exitDy=0;strokeWidth=1;" edge="1" parent="1" source="jpzbYG29YEpEbXQin0qu-266">
          <mxGeometry width="50" height="50" relative="1" as="geometry">
            <mxPoint x="274" y="610" as="sourcePoint" />
            <mxPoint x="470.9999999999999" y="610" as="targetPoint" />
          </mxGeometry>
        </mxCell>
        <mxCell id="jpzbYG29YEpEbXQin0qu-261" value="" style="endArrow=none;html=1;strokeColor=#000000;exitX=1;exitY=0.5;exitDx=0;exitDy=0;" edge="1" parent="1" source="jpzbYG29YEpEbXQin0qu-269">
          <mxGeometry width="50" height="50" relative="1" as="geometry">
            <mxPoint x="254" y="640" as="sourcePoint" />
            <mxPoint x="450.9999999999999" y="640" as="targetPoint" />
          </mxGeometry>
        </mxCell>
        <mxCell id="jpzbYG29YEpEbXQin0qu-264" value="" style="ellipse;whiteSpace=wrap;html=1;rotation=0;strokeColor=#3333FF;fillColor=#7EA6E0;" vertex="1" parent="1">
          <mxGeometry x="407.9999999999999" y="577" width="6" height="6" as="geometry" />
        </mxCell>
        <mxCell id="jpzbYG29YEpEbXQin0qu-267" value="" style="ellipse;whiteSpace=wrap;html=1;rotation=0;strokeColor=#3333FF;fillColor=#7EA6E0;" vertex="1" parent="1">
          <mxGeometry x="387.9999999999999" y="607" width="6" height="6" as="geometry" />
        </mxCell>
        <mxCell id="jpzbYG29YEpEbXQin0qu-270" value="" style="ellipse;whiteSpace=wrap;html=1;rotation=0;strokeColor=#3333FF;fillColor=#7EA6E0;" vertex="1" parent="1">
          <mxGeometry x="367.9999999999999" y="637" width="6" height="6" as="geometry" />
        </mxCell>
        <mxCell id="jpzbYG29YEpEbXQin0qu-277" value="" style="ellipse;whiteSpace=wrap;html=1;rotation=0;strokeColor=#FF3333;" vertex="1" parent="1">
          <mxGeometry x="367.94999999999993" y="596.49" width="6" height="6" as="geometry" />
        </mxCell>
        <mxCell id="jpzbYG29YEpEbXQin0qu-279" value="" style="ellipse;whiteSpace=wrap;html=1;rotation=0;strokeColor=#FF3333;" vertex="1" parent="1">
          <mxGeometry x="347.9999999999999" y="626.49" width="6" height="6" as="geometry" />
        </mxCell>
        <mxCell id="jpzbYG29YEpEbXQin0qu-280" value="" style="ellipse;whiteSpace=wrap;html=1;rotation=0;strokeColor=#FF3333;" vertex="1" parent="1">
          <mxGeometry x="367.94999999999993" y="617.49" width="6" height="6" as="geometry" />
        </mxCell>
        <mxCell id="jpzbYG29YEpEbXQin0qu-282" value="" style="endArrow=none;html=1;dashed=1;strokeColor=#7EA6E0;" edge="1" parent="1" target="jpzbYG29YEpEbXQin0qu-283">
          <mxGeometry width="50" height="50" relative="1" as="geometry">
            <mxPoint x="390.9999999999999" y="590" as="sourcePoint" />
            <mxPoint x="410.9999999999999" y="600" as="targetPoint" />
          </mxGeometry>
        </mxCell>
        <mxCell id="jpzbYG29YEpEbXQin0qu-285" value="" style="ellipse;whiteSpace=wrap;html=1;rotation=0;strokeColor=#FF3333;" vertex="1" parent="1">
          <mxGeometry x="387.9999999999999" y="626.49" width="6" height="6" as="geometry" />
        </mxCell>
        <mxCell id="jpzbYG29YEpEbXQin0qu-286" value="" style="ellipse;whiteSpace=wrap;html=1;rotation=0;strokeColor=#3333FF;fillColor=#7EA6E0;" vertex="1" parent="1">
          <mxGeometry x="447.89999999999986" y="577" width="6" height="6" as="geometry" />
        </mxCell>
        <mxCell id="jpzbYG29YEpEbXQin0qu-287" value="" style="ellipse;whiteSpace=wrap;html=1;rotation=0;strokeColor=#3333FF;" vertex="1" parent="1">
          <mxGeometry x="427.89999999999986" y="607" width="6" height="6" as="geometry" />
        </mxCell>
        <mxCell id="jpzbYG29YEpEbXQin0qu-288" value="" style="ellipse;whiteSpace=wrap;html=1;rotation=0;strokeColor=#3333FF;" vertex="1" parent="1">
          <mxGeometry x="407.89999999999986" y="637" width="6" height="6" as="geometry" />
        </mxCell>
        <mxCell id="jpzbYG29YEpEbXQin0qu-289" value="" style="endArrow=none;html=1;strokeColor=#00CC00;strokeWidth=3;" edge="1" parent="1">
          <mxGeometry width="50" height="50" relative="1" as="geometry">
            <mxPoint x="450.94999999999993" y="600" as="sourcePoint" />
            <mxPoint x="430.94999999999993" y="590" as="targetPoint" />
          </mxGeometry>
        </mxCell>
        <mxCell id="jpzbYG29YEpEbXQin0qu-290" value="" style="endArrow=none;html=1;strokeColor=#00CC00;strokeWidth=3;" edge="1" parent="1">
          <mxGeometry width="50" height="50" relative="1" as="geometry">
            <mxPoint x="450.94999999999993" y="600" as="sourcePoint" />
            <mxPoint x="470.94999999999993" y="590" as="targetPoint" />
          </mxGeometry>
        </mxCell>
        <mxCell id="jpzbYG29YEpEbXQin0qu-291" value="" style="ellipse;whiteSpace=wrap;html=1;rotation=0;strokeColor=#FF3333;" vertex="1" parent="1">
          <mxGeometry x="447.94999999999993" y="595.52" width="6" height="6" as="geometry" />
        </mxCell>
        <mxCell id="jpzbYG29YEpEbXQin0qu-292" value="" style="endArrow=none;html=1;dashed=1;strokeColor=#7EA6E0;" edge="1" parent="1">
          <mxGeometry width="50" height="50" relative="1" as="geometry">
            <mxPoint x="410.9799999999999" y="620" as="sourcePoint" />
            <mxPoint x="430.9799999999999" y="630" as="targetPoint" />
          </mxGeometry>
        </mxCell>
        <mxCell id="jpzbYG29YEpEbXQin0qu-293" value="" style="endArrow=none;html=1;strokeColor=#00CC00;strokeWidth=3;" edge="1" parent="1">
          <mxGeometry width="50" height="50" relative="1" as="geometry">
            <mxPoint x="430.9799999999999" y="630" as="sourcePoint" />
            <mxPoint x="450.9799999999999" y="620" as="targetPoint" />
          </mxGeometry>
        </mxCell>
        <mxCell id="jpzbYG29YEpEbXQin0qu-294" value="" style="ellipse;whiteSpace=wrap;html=1;rotation=0;strokeColor=#FF3333;" vertex="1" parent="1">
          <mxGeometry x="407.9999999999999" y="617.55" width="6" height="6" as="geometry" />
        </mxCell>
        <mxCell id="jpzbYG29YEpEbXQin0qu-295" value="" style="ellipse;whiteSpace=wrap;html=1;rotation=0;strokeColor=#FF3333;" vertex="1" parent="1">
          <mxGeometry x="427.9999999999999" y="587.52" width="6" height="6" as="geometry" />
        </mxCell>
        <mxCell id="jpzbYG29YEpEbXQin0qu-296" value="" style="endArrow=none;html=1;strokeColor=#00CC00;strokeWidth=3;" edge="1" parent="1">
          <mxGeometry width="50" height="50" relative="1" as="geometry">
            <mxPoint x="430.77999999999986" y="639.52" as="sourcePoint" />
            <mxPoint x="430.77999999999986" y="629.52" as="targetPoint" />
          </mxGeometry>
        </mxCell>
        <mxCell id="jpzbYG29YEpEbXQin0qu-297" value="" style="ellipse;whiteSpace=wrap;html=1;rotation=0;strokeColor=#FF3333;" vertex="1" parent="1">
          <mxGeometry x="427.9799999999999" y="626.49" width="6" height="6" as="geometry" />
        </mxCell>
        <mxCell id="jpzbYG29YEpEbXQin0qu-298" value="" style="endArrow=none;html=1;strokeColor=#7EA6E0;startArrow=none;entryX=0.021;entryY=0.2;entryDx=0;entryDy=0;entryPerimeter=0;strokeWidth=1;dashed=1;" edge="1" parent="1">
          <mxGeometry width="50" height="50" relative="1" as="geometry">
            <mxPoint x="534.0010533221974" y="500.9652058389522" as="sourcePoint" />
            <mxPoint x="540.466" y="504.3600000000001" as="targetPoint" />
          </mxGeometry>
        </mxCell>
        <mxCell id="jpzbYG29YEpEbXQin0qu-299" value="" style="endArrow=none;html=1;strokeColor=#7EA6E0;startArrow=none;entryX=0.021;entryY=0.2;entryDx=0;entryDy=0;entryPerimeter=0;strokeWidth=1;dashed=1;" edge="1" parent="1">
          <mxGeometry width="50" height="50" relative="1" as="geometry">
            <mxPoint x="513.8510533221975" y="532.1252058389522" as="sourcePoint" />
            <mxPoint x="520.316" y="535.5200000000001" as="targetPoint" />
          </mxGeometry>
        </mxCell>
        <mxCell id="jpzbYG29YEpEbXQin0qu-300" value="" style="ellipse;whiteSpace=wrap;html=1;rotation=0;strokeColor=#FF3333;" vertex="1" parent="1">
          <mxGeometry x="527.9" y="496.52" width="6" height="6" as="geometry" />
        </mxCell>
        <mxCell id="jpzbYG29YEpEbXQin0qu-301" value="" style="endArrow=none;html=1;strokeColor=#00CC00;startArrow=none;entryX=0.021;entryY=0.2;entryDx=0;entryDy=0;entryPerimeter=0;strokeWidth=3;targetPerimeterSpacing=1;" edge="1" parent="1">
          <mxGeometry width="50" height="50" relative="1" as="geometry">
            <mxPoint x="493.85105332219746" y="561.3952058389522" as="sourcePoint" />
            <mxPoint x="500.31600000000014" y="564.7900000000001" as="targetPoint" />
          </mxGeometry>
        </mxCell>
        <mxCell id="jpzbYG29YEpEbXQin0qu-302" value="" style="endArrow=none;html=1;strokeColor=#7EA6E0;startArrow=none;entryX=0.021;entryY=0.2;entryDx=0;entryDy=0;entryPerimeter=0;strokeWidth=1;dashed=1;" edge="1" parent="1">
          <mxGeometry width="50" height="50" relative="1" as="geometry">
            <mxPoint x="473.85105332219746" y="592.1252058389522" as="sourcePoint" />
            <mxPoint x="480.31600000000014" y="595.5200000000001" as="targetPoint" />
          </mxGeometry>
        </mxCell>
        <mxCell id="jpzbYG29YEpEbXQin0qu-303" value="" style="endArrow=none;html=1;strokeColor=#00CC00;startArrow=none;entryX=0.021;entryY=0.2;entryDx=0;entryDy=0;entryPerimeter=0;strokeWidth=3;" edge="1" parent="1">
          <mxGeometry width="50" height="50" relative="1" as="geometry">
            <mxPoint x="453.98105332219745" y="621.5252058389522" as="sourcePoint" />
            <mxPoint x="460.44600000000014" y="624.9200000000001" as="targetPoint" />
          </mxGeometry>
        </mxCell>
        <mxCell id="jpzbYG29YEpEbXQin0qu-305" value="" style="ellipse;whiteSpace=wrap;html=1;rotation=0;strokeColor=#FF3333;" vertex="1" parent="1">
          <mxGeometry x="487.92999999999995" y="557.55" width="6" height="6" as="geometry" />
        </mxCell>
        <mxCell id="jpzbYG29YEpEbXQin0qu-306" value="" style="ellipse;whiteSpace=wrap;html=1;rotation=0;strokeColor=#FF3333;" vertex="1" parent="1">
          <mxGeometry x="467.94999999999993" y="587.52" width="6" height="6" as="geometry" />
        </mxCell>
        <mxCell id="jpzbYG29YEpEbXQin0qu-307" value="" style="ellipse;whiteSpace=wrap;html=1;rotation=0;strokeColor=#FF3333;" vertex="1" parent="1">
          <mxGeometry x="447.9799999999999" y="617.55" width="6" height="6" as="geometry" />
        </mxCell>
        <mxCell id="jpzbYG29YEpEbXQin0qu-314" value="" style="shape=or;whiteSpace=wrap;html=1;dashed=1;fillColor=#FFFFFF;rotation=213.5;strokeColor=none;" vertex="1" parent="1">
          <mxGeometry x="350.63" y="429.74" width="36" height="241.14" as="geometry" />
        </mxCell>
        <mxCell id="jpzbYG29YEpEbXQin0qu-145" value="" style="endArrow=none;html=1;strokeColor=#000000;entryX=0;entryY=1;entryDx=0;entryDy=0;exitX=1;exitY=0;exitDx=0;exitDy=0;dashed=1;" edge="1" parent="1" source="jpzbYG29YEpEbXQin0qu-269" target="jpzbYG29YEpEbXQin0qu-154">
          <mxGeometry width="50" height="50" relative="1" as="geometry">
            <mxPoint x="370.94999999999993" y="580" as="sourcePoint" />
            <mxPoint x="450.94999999999993" y="460" as="targetPoint" />
          </mxGeometry>
        </mxCell>
        <mxCell id="jpzbYG29YEpEbXQin0qu-154" value="" style="ellipse;whiteSpace=wrap;html=1;rotation=0;strokeColor=#3333FF;fillColor=#7EA6E0;" vertex="1" parent="1">
          <mxGeometry x="427.94999999999993" y="487" width="6" height="6" as="geometry" />
        </mxCell>
        <mxCell id="jpzbYG29YEpEbXQin0qu-157" value="" style="ellipse;whiteSpace=wrap;html=1;rotation=0;strokeColor=#3333FF;fillColor=#7EA6E0;" vertex="1" parent="1">
          <mxGeometry x="407.94999999999993" y="517" width="6" height="6" as="geometry" />
        </mxCell>
        <mxCell id="jpzbYG29YEpEbXQin0qu-160" value="" style="ellipse;whiteSpace=wrap;html=1;rotation=0;strokeColor=#3333FF;fillColor=#7EA6E0;" vertex="1" parent="1">
          <mxGeometry x="387.94999999999993" y="547" width="6" height="6" as="geometry" />
        </mxCell>
        <mxCell id="jpzbYG29YEpEbXQin0qu-263" value="" style="ellipse;whiteSpace=wrap;html=1;rotation=0;strokeColor=#3333FF;" vertex="1" parent="1">
          <mxGeometry x="367.9999999999999" y="577" width="6" height="6" as="geometry" />
        </mxCell>
        <mxCell id="jpzbYG29YEpEbXQin0qu-266" value="" style="ellipse;whiteSpace=wrap;html=1;rotation=0;strokeColor=#3333FF;fillColor=#FFFFFF;" vertex="1" parent="1">
          <mxGeometry x="347.9999999999999" y="607" width="6" height="6" as="geometry" />
        </mxCell>
        <mxCell id="jpzbYG29YEpEbXQin0qu-269" value="" style="ellipse;whiteSpace=wrap;html=1;rotation=0;strokeColor=#3333FF;fillColor=#7EA6E0;" vertex="1" parent="1">
          <mxGeometry x="327.9999999999999" y="637" width="6" height="6" as="geometry" />
        </mxCell>
        <mxCell id="jpzbYG29YEpEbXQin0qu-347" value="" style="rounded=0;whiteSpace=wrap;html=1;strokeColor=none;fillColor=#d5e8d4;rotation=35;" vertex="1" parent="1">
          <mxGeometry x="513.46" y="525.71" width="7.47" height="14.95" as="geometry" />
        </mxCell>
        <mxCell id="jpzbYG29YEpEbXQin0qu-315" value="" style="endArrow=none;html=1;strokeColor=#000000;entryX=0;entryY=1;entryDx=0;entryDy=0;exitX=1;exitY=0;exitDx=0;exitDy=0;" edge="1" parent="1" source="jpzbYG29YEpEbXQin0qu-321">
          <mxGeometry width="50" height="50" relative="1" as="geometry">
            <mxPoint x="491.2599999999999" y="579.52" as="sourcePoint" />
            <mxPoint x="549.1386796564403" y="491.6413203435595" as="targetPoint" />
          </mxGeometry>
        </mxCell>
        <mxCell id="jpzbYG29YEpEbXQin0qu-304" value="" style="ellipse;whiteSpace=wrap;html=1;rotation=0;strokeColor=#FF3333;" vertex="1" parent="1">
          <mxGeometry x="507.9" y="527.52" width="6" height="6" as="geometry" />
        </mxCell>
        <mxCell id="jpzbYG29YEpEbXQin0qu-316" value="" style="ellipse;whiteSpace=wrap;html=1;rotation=0;strokeColor=#3333FF;fillColor=#7EA6E0;" vertex="1" parent="1">
          <mxGeometry x="547.8499999999999" y="487" width="6" height="6" as="geometry" />
        </mxCell>
        <mxCell id="jpzbYG29YEpEbXQin0qu-317" value="" style="ellipse;whiteSpace=wrap;html=1;rotation=0;strokeColor=#3333FF;fillColor=#7EA6E0;" vertex="1" parent="1">
          <mxGeometry x="527.8499999999999" y="517" width="6" height="6" as="geometry" />
        </mxCell>
        <mxCell id="jpzbYG29YEpEbXQin0qu-318" value="" style="ellipse;whiteSpace=wrap;html=1;rotation=0;strokeColor=#3333FF;fillColor=#7EA6E0;" vertex="1" parent="1">
          <mxGeometry x="507.8499999999999" y="547" width="6" height="6" as="geometry" />
        </mxCell>
        <mxCell id="jpzbYG29YEpEbXQin0qu-319" value="" style="ellipse;whiteSpace=wrap;html=1;rotation=0;strokeColor=#3333FF;fillColor=#FFFFFF;" vertex="1" parent="1">
          <mxGeometry x="487.89999999999986" y="577" width="6" height="6" as="geometry" />
        </mxCell>
        <mxCell id="jpzbYG29YEpEbXQin0qu-320" value="" style="ellipse;whiteSpace=wrap;html=1;rotation=0;strokeColor=#3333FF;fillColor=#FFFFFF;" vertex="1" parent="1">
          <mxGeometry x="467.89999999999986" y="607" width="6" height="6" as="geometry" />
        </mxCell>
        <mxCell id="jpzbYG29YEpEbXQin0qu-321" value="" style="ellipse;whiteSpace=wrap;html=1;rotation=0;strokeColor=#3333FF;fillColor=#7EA6E0;" vertex="1" parent="1">
          <mxGeometry x="447.89999999999986" y="637" width="6" height="6" as="geometry" />
        </mxCell>
        <mxCell id="jpzbYG29YEpEbXQin0qu-178" value="" style="ellipse;whiteSpace=wrap;html=1;rotation=0;strokeColor=#FF3333;" vertex="1" parent="1">
          <mxGeometry x="387.94999999999993" y="566.49" width="6" height="6" as="geometry" />
        </mxCell>
        <mxCell id="jpzbYG29YEpEbXQin0qu-179" value="" style="ellipse;whiteSpace=wrap;html=1;rotation=0;strokeColor=#FF3333;" vertex="1" parent="1">
          <mxGeometry x="407.9" y="557.49" width="6" height="6" as="geometry" />
        </mxCell>
        <mxCell id="jpzbYG29YEpEbXQin0qu-283" value="" style="ellipse;whiteSpace=wrap;html=1;rotation=0;strokeColor=#FF3333;" vertex="1" parent="1">
          <mxGeometry x="387.9999999999999" y="587.49" width="6" height="6" as="geometry" />
        </mxCell>
        <mxCell id="jpzbYG29YEpEbXQin0qu-284" value="" style="ellipse;whiteSpace=wrap;html=1;rotation=0;strokeColor=#FF3333;" vertex="1" parent="1">
          <mxGeometry x="407.9999999999999" y="595.52" width="6" height="6" as="geometry" />
        </mxCell>
      </root>
    </mxGraphModel>
  </diagram>
</mxfile>
